<svg width="170" height="26" viewBox="0 0 170 26" fill="none" xmlns="http://www.w3.org/2000/svg">
<path fill-rule="evenodd" clip-rule="evenodd" d="M5.94528 24.3698H28.1378C29.4567 24.3698 30.4604 22.7996 29.7009 21.659L18.6187 2.34864C17.8092 0.95136 16.2738 0.0012207 14.5153 0.0012207C12.6729 0.0012207 11.0537 1.06314 10.2721 2.6281L1.84179 17.2716C0.125055 20.3405 2.46563 24.3698 5.94528 24.3698Z" fill="#0043FF"/>
<path fill-rule="evenodd" clip-rule="evenodd" d="M23.4221 7.12837C22.1101 4.86478 22.8917 1.95843 25.1529 0.644992C27.414 -0.66845 30.3171 0.114029 31.6291 2.37762L40.1991 17.2447C41.5111 19.5083 40.7294 22.4146 38.4682 23.728C36.2071 25.0415 33.304 24.259 31.992 21.9954L23.4221 7.12837Z" fill="#0043FF"/>
<path d="M155.021 6.18939C156.316 4.98054 158.587 4.40489 161.893 4.40489H169.627V0.0012207H160.485C158.299 0.0012207 156.459 0.231485 155.021 0.692C153.613 1.15252 152.377 1.87206 151.313 2.87944C150.192 3.97317 149.301 5.32592 148.668 6.93772C148.036 8.57831 147.719 10.3628 147.719 12.2336C147.719 14.0181 148.036 15.7451 148.668 17.3281C149.301 18.9111 150.192 20.2926 151.313 21.3864C152.348 22.3938 153.584 23.1134 154.964 23.5739C156.373 24.0343 158.242 24.2646 160.485 24.2646H169.627V19.9185H161.893C160.14 19.9185 158.931 19.8609 158.242 19.717C157.523 19.5732 156.862 19.3428 156.316 18.9975C155.223 18.3067 154.389 17.4145 153.844 16.2919C153.325 15.1982 153.066 13.8166 153.066 12.2049C153.066 9.44178 153.728 7.39824 155.021 6.18939Z" fill="white"/>
<path d="M87.7168 24.3232H109.28V20.0635H92.9782V13.9904H107.21V9.96085H92.9782V4.31956H109.28V0.0310059H87.7168V24.3232Z" fill="white"/>
<path d="M114.656 0.0310059L124.748 12.177L114.656 24.3232H121.183L129.147 14.7099V9.67304L121.183 0.0310059H114.656Z" fill="white"/>
<path d="M139.155 0.0310059L131.191 9.67304V14.7099L139.155 24.3232H145.681L135.56 12.177L145.681 0.0310059H139.155Z" fill="white"/>
<path d="M66.5862 12.0044L56.8971 0.0310059H51.8945V24.3232H57.1559V8.11881L65.5511 18.1926H67.5925L75.9875 8.03247V24.3232H81.2489V0.0310059H76.3039L66.5862 12.0044Z" fill="white"/>
</svg>
