<svg width="38" height="39" viewBox="0 0 38 39" fill="none" xmlns="http://www.w3.org/2000/svg">
<path d="M6.13501 19.1376C6.13501 12.0061 11.9009 6.24023 19.0323 6.24023C26.1638 6.24023 31.9297 12.0061 31.9297 19.1376C31.9297 26.269 26.1638 32.0349 19.0323 32.0349C11.9009 32.0349 6.13501 26.269 6.13501 19.1376ZM30.4124 19.1376C30.4124 12.8406 25.3293 7.75757 19.0323 7.75757C12.7354 7.75757 7.65234 12.8406 7.65234 19.1376C7.65234 25.4345 12.7354 30.5176 19.0323 30.5176C25.3293 30.5176 30.4124 25.4345 30.4124 19.1376Z" fill="#D0D0D0"/>
<path d="M17.7507 25.4343L24.0476 19.1374L17.7507 12.8405L18.8128 11.7783L26.1719 19.1374L18.8128 26.4965L17.7507 25.4343Z" fill="#D0D0D0"/>
<path d="M25.1016 18.3789L25.1016 19.8962L12.2042 19.8962L12.2042 18.3789L25.1016 18.3789Z" fill="#D0D0D0"/>
</svg>
