<svg width="17" height="19" viewBox="0 0 17 19" fill="none" xmlns="http://www.w3.org/2000/svg">
<g clip-path="url(#clip0_5273_37617)">
<path d="M11.6726 16.5674V17.9494C11.6726 18.4073 11.3014 18.7785 10.8435 18.7785H1.44634C0.988408 18.7785 0.617188 18.4073 0.617188 17.9494V5.23563C0.617188 4.77769 0.988408 4.40647 1.44634 4.40647H3.93381V14.6327C3.93381 15.6995 4.8017 16.5674 5.86851 16.5674H11.6726ZM11.6726 4.68286V1.08984H5.86851C5.41058 1.08984 5.03936 1.46106 5.03936 1.919V14.6327C5.03936 15.0907 5.41058 15.4619 5.86851 15.4619H15.2656C15.7236 15.4619 16.0948 15.0907 16.0948 14.6327V5.51201H12.5018C12.0457 5.51201 11.6726 5.13889 11.6726 4.68286ZM15.8519 3.61086L13.5738 1.33268C13.4183 1.1772 13.2074 1.08984 12.9875 1.08984H12.7782V4.40647H16.0948V4.19714C16.0948 3.97725 16.0074 3.76635 15.8519 3.61086Z" fill="#B9B9B9"/>
</g>
<defs>
<clipPath id="clip0_5273_37617">
<rect width="15.4776" height="17.6887" fill="white" transform="translate(0.5625 0.902344)"/>
</clipPath>
</defs>
</svg>
