<svg width="23" height="16" viewBox="0 0 23 16" fill="none" xmlns="http://www.w3.org/2000/svg">
<path d="M19.0587 0.591064H3.42278C1.64764 0.591064 0.203613 2.03509 0.203613 3.81023V12.0881C0.203613 13.8632 1.64764 15.3072 3.42278 15.3072H19.0587C20.8338 15.3072 22.2779 13.8632 22.2779 12.0881V3.81023C22.2779 2.03509 20.8338 0.591064 19.0587 0.591064Z" fill="white" fill-opacity="0.4"/>
<path d="M8.48284 12.5479C5.94706 12.5479 3.88403 10.4849 3.88403 7.94915C3.88403 5.41337 5.94706 3.35034 8.48284 3.35034C11.0186 3.35034 13.0816 5.41337 13.0816 7.94915C13.0816 10.4849 11.0186 12.5479 8.48284 12.5479Z" fill="#EE2C3C"/>
<path d="M14.0033 3.35034C12.5069 3.35034 11.188 4.07971 10.3482 5.18986H12.1408C12.357 5.47499 12.5492 5.77851 12.6945 6.10962H9.79544C9.66379 6.4047 9.5642 6.71305 9.49836 7.02938H12.9916C13.0514 7.32647 13.0836 7.63459 13.0836 7.94915H9.40454C9.40454 8.2637 9.43673 8.57182 9.49744 8.86891H12.9907C12.9248 9.18524 12.8253 9.49359 12.6936 9.78867H9.79452C9.93984 10.1198 10.1321 10.4233 10.3482 10.7084H12.1408C11.8845 11.0468 11.5827 11.3483 11.2441 11.6043C12.0354 12.213 13.005 12.5446 14.0033 12.5479C16.5391 12.5479 18.6021 10.4849 18.6021 7.94915C18.6021 5.41337 16.5391 3.35034 14.0033 3.35034Z" fill="#F99D3C"/>
</svg>
