<svg width="38" height="39" viewBox="0 0 38 39" fill="none" xmlns="http://www.w3.org/2000/svg">
<path d="M19.0323 6.28393C26.1638 6.28393 31.9297 12.0498 31.9297 19.1813C31.9297 26.3127 26.1638 32.0786 19.0323 32.0786C11.9009 32.0786 6.13501 26.3127 6.13501 19.1813C6.13501 12.0498 11.9009 6.28393 19.0323 6.28393ZM19.0323 30.5613C25.3293 30.5613 30.4124 25.4782 30.4124 19.1813C30.4124 12.8843 25.3293 7.80127 19.0323 7.80127C12.7354 7.80127 7.65234 12.8843 7.65234 19.1813C7.65235 25.4782 12.7354 30.5613 19.0323 30.5613Z" fill="#D0D0D0"/>
<path d="M26 19.5518C26 20.104 25.5523 20.5518 25 20.5518H20H18H13C12.4477 20.5518 12 20.104 12 19.5518C12 18.9995 12.4477 18.5518 13 18.5518H18H20H25C25.5523 18.5518 26 18.9995 26 19.5518Z" fill="#D0D0D0"/>
</svg>
