<svg width="256" height="30" viewBox="0 0 256 30" fill="none" xmlns="http://www.w3.org/2000/svg">
<path d="M45.9948 7.09779C46.1244 7.11647 48.1616 8.25981 48.2858 8.36293C48.8901 8.86494 49.4618 10.9002 49.3594 11.7167C49.3166 12.0591 48.9894 13.2013 48.838 13.4967C48.7123 13.7418 47.4024 14.6661 47.5861 14.9291C47.6324 14.9957 48.6006 15.4152 48.9707 15.7775C50.6728 17.4446 50.6495 20.7213 48.701 22.141C48.1846 22.5173 46.1964 23.2037 45.571 23.2037H36.4586L36.1406 22.8858V7.09779C39.178 7.413 43.0633 6.674 45.9948 7.09779ZM44.0876 10.2768C43.0754 10.0962 41.1016 10.2768 39.9551 10.2768C39.7843 10.2768 39.9964 13.6675 40.1672 13.6675H44.1938C44.2117 13.6675 44.1592 13.3589 44.2557 13.3161C45.2173 12.8884 46.2528 12.5938 45.4757 11.2186C45.2986 10.9053 44.4327 10.3383 44.088 10.2768H44.0876ZM46.2517 17.3295C45.7321 16.5515 41.0969 16.4037 40.3026 16.664C39.8205 16.822 39.5971 19.8605 40.4848 20.0251C41.3825 20.1913 45.7107 20.0967 46.1968 19.3807C46.4739 18.9729 46.5221 17.7346 46.2517 17.3295Z" fill="#F0B90B"/>
<path d="M65.7005 7.09766C66.3029 7.21285 66.5944 8.25851 66.9465 8.70214C68.8849 11.1418 70.8073 13.66 72.7368 16.1548C72.8745 16.3331 72.7325 16.5386 73.2232 16.4222V7.09805H77.0377V22.8857C77.0377 23.7204 74.1346 23.5363 73.584 23.2145C73.2193 23.0013 72.9559 22.1179 72.713 21.8058C70.8914 19.4642 68.7627 16.3627 66.8489 14.2628C66.6181 14.0094 66.3947 13.5794 66.0176 13.6674V22.8857L65.6997 23.2036H62.5211L62.2031 22.8857V7.09766H65.7005Z" fill="#F0B90B"/>
<path d="M102.567 7.09745C103.262 7.29203 108.642 15.504 109.878 16.4216V7.09745H113.693V23.0972C113.693 23.5723 111.005 23.4898 110.518 23.2953L103.318 13.8236L102.673 13.4551V23.2034H99.3883L99.0703 22.8855V7.09745C100.012 7.26479 101.751 6.86902 102.567 7.09745H102.567Z" fill="#F0B90B"/>
<path d="M183.338 7.39598C186.505 8.7156 188.764 12.6967 188.304 16.1142C188.176 17.0669 186.778 19.7341 186.799 20.1011C186.805 20.1961 188.212 21.2472 188.246 21.3363C188.471 21.9379 187.672 22.4734 187.311 22.8684C187.214 22.9742 187.261 23.2681 187.183 23.3486C186.435 24.1172 185.312 22.0628 184.58 21.9301C184.487 21.9134 184.515 22.2508 184.313 22.3352C180.436 23.9584 176.075 24.0433 173.258 20.4922C167.753 13.5509 175.053 3.94339 183.338 7.39598H183.338ZM182.279 9.93755C175.325 6.61066 170.999 17.7584 178.045 20.3206C178.111 20.3447 178.132 20.6183 178.273 20.6518C178.693 20.7498 180.503 20.7315 180.991 20.6704C181.505 20.6058 182.687 20.228 182.315 19.6388C182.078 19.2625 180.016 18.1409 179.818 17.5868C179.786 17.4981 181.122 16.4999 181.246 16.3532C181.446 16.1154 181.017 15.3452 182.207 16.0006C183.042 16.4606 184.535 19.1691 185.01 17.063C185.585 14.5086 184.828 11.1576 182.278 9.93794L182.279 9.93755Z" fill="white"/>
<path d="M147.182 7.09766V10.2763H138.493V13.2432H146.122V16.8456H138.493V19.8125H147.076C147.557 19.8125 147.557 23.2032 147.076 23.2032H135.209L134.891 22.8853V7.09766H147.182Z" fill="#F0B90B"/>
<path d="M79.3672 23.2039L86.1315 7.1871C86.4782 6.75397 89.4689 6.74658 89.7724 7.02249C91.9085 11.4343 94.259 16.8545 96.0794 21.4761C96.283 22.0096 96.5348 22.621 96.5324 23.2039H93.0359C92.4117 23.2039 91.6816 20.2701 91.4217 19.6276L84.662 19.7043L83.1817 23.2039H79.3672ZM85.9369 16.4225H89.9635C89.5572 15.4971 89.3113 14.1697 88.71 13.5015L87.9504 11.546L85.9373 16.4225H85.9369Z" fill="#F0B90B"/>
<path d="M235.452 7.09749C236.589 7.22669 238.595 8.47121 239.125 9.56396C239.373 10.0761 239.268 10.3812 239.387 10.7528C239.445 10.9338 239.753 10.9112 239.789 11.0614C240.237 12.9294 239.257 15.0211 237.776 16.2033C237.546 16.745 236.12 16.6948 236.19 17.1657C236.183 18.0977 240.367 22.4349 240.007 23.2023C239.891 23.3155 237.154 23.2373 236.765 23.0038C235.553 21.1184 234.005 19.4855 233.015 17.4817H229.624C229.596 17.4817 229.412 17.9829 229.412 18.0113V22.8855C229.412 23.4759 226.445 23.1439 226.445 22.9914V7.09749C229.305 7.33371 232.653 6.77916 235.452 7.09749ZM235.24 9.85271C233.83 9.49585 230.994 10.1173 229.413 9.85271V14.9386H234.816C235.538 14.9386 236.788 13.4769 236.816 12.6854C236.848 11.7374 236.284 10.1166 235.24 9.85232V9.85271Z" fill="white"/>
<path d="M131.197 8.45762C131.319 8.56075 131.896 9.08922 131.91 9.13631C132.066 9.6679 129.773 12.1184 129.394 11.9565C129.374 11.948 129.397 11.6942 129.22 11.5557C127.145 9.92941 123.849 9.55271 122.102 11.8168C119.017 15.8138 122.445 21.6858 127.801 19.6104C128.386 19.3835 129.469 18.2818 129.879 18.362C130.011 18.3881 131.739 20.0751 131.816 20.2389C132.282 21.2336 130.08 22.4645 129.31 22.8155C125.066 24.7512 119.099 22.8279 117.504 18.2309C114.504 9.57761 124.803 3.06861 131.197 8.45762Z" fill="#F0B90B"/>
<path d="M255.047 7.09766C255.14 7.19066 255.143 9.64078 254.729 9.64078H246.252L245.935 9.95872V13.6674H253.987V16.4222H245.935V20.3425L246.252 20.6605H255.259C255.218 21.1127 255.444 23.2036 254.941 23.2036H243.18V7.09766H255.047Z" fill="white"/>
<path d="M194.225 7.09766V16.9518C194.225 17.8823 195.252 19.7475 196.096 20.2149C198.424 21.5042 202.278 20.3729 202.278 17.3756V7.09766H205.244V17.3756C205.244 18.9883 203.705 21.4548 202.342 22.3148C197.711 25.2385 191.258 22.5993 191.258 16.7401V7.09805H194.225V7.09766Z" fill="white"/>
<path d="M217.193 8.08196C219.488 12.5218 221.732 17.7373 223.585 22.3464C223.649 22.5441 223.762 23.1209 223.682 23.2022C223.603 23.2835 221.736 23.252 221.447 23.2131C219.977 23.0158 219.775 19.2635 218.922 19.162C218.115 19.0659 212.261 19.0199 211.736 19.1647C211.483 19.2344 210.463 22.6714 209.988 23.0064C209.622 23.2637 207.724 23.3228 207.352 23.1037C206.803 22.7811 207.741 21.8339 207.769 21.7639C209.723 16.8391 211.946 12.0366 213.986 7.15149C214.275 6.8137 216.096 6.79346 216.54 6.9285C217.173 7.12113 216.973 7.67879 217.193 8.08235L217.193 8.08196ZM212.874 16.8457C213.049 17.0232 217.161 16.8457 217.854 16.8457C217.877 16.8457 218.278 16.5375 218.066 16.4293L215.624 10.6998C214.785 10.8578 215.082 11.3404 214.827 11.907C214.54 12.5479 212.626 16.5939 212.874 16.8457Z" fill="white"/>
<path d="M10.1621 18.453C10.84 19.062 14.5125 22.8932 14.8332 22.9376C15.4021 23.0166 19.9797 17.5089 20.3666 17.4711C20.7868 17.4303 24.046 20.5167 24.0406 20.7665C24.0269 21.4106 15.8177 28.8672 14.8351 29.7801L5.61719 20.7657C6.26552 20.5638 8.69346 17.4879 8.92656 17.4723C9.66673 17.4229 9.76247 18.0942 10.1617 18.4534L10.1621 18.453Z" fill="#F0B90B"/>
<path d="M15.4392 1.08959C18.2473 3.77632 21.0017 6.44553 23.7433 9.20698C23.8469 9.36497 23.8714 9.53854 23.8515 9.72338C23.8305 9.91796 21.2578 12.407 21.0827 12.4957C20.7799 12.6491 20.692 12.6062 20.39 12.5708C19.6276 12.4817 15.0138 6.82379 14.7332 7.0997C14.7173 7.11527 14.7476 7.3293 14.5585 7.51104C12.9046 9.10424 11.2799 10.7297 9.69874 12.3907C9.33916 12.6483 9.0325 12.6062 8.63946 12.4638C8.45967 12.3984 5.943 9.99229 5.88035 9.81133C5.79551 9.56617 5.79162 9.43191 5.92705 9.20659L14.734 0.318676C14.9465 0.215161 15.2819 0.939378 15.4392 1.08959Z" fill="#F0B90B"/>
<path d="M168.077 9.34309C167.931 9.58047 167.075 10.9164 166.98 10.9301C166.588 10.9865 164.621 9.57775 163.81 9.4431C161.878 9.12244 159.072 9.73964 160.169 12.2419C160.663 13.367 164.37 13.8744 165.662 14.3729C168.604 15.5081 169.876 18.289 168.165 21.1423C165.686 24.8385 159.432 23.404 156.542 21.0559C156.28 20.5951 157.61 19.1354 157.978 19.0541C158.886 18.8529 159.064 19.581 159.699 19.9028C161.245 20.6858 164.342 21.4563 165.592 19.8861C167.13 17.952 164.645 16.9845 163.127 16.4849C162.16 16.1665 161.068 16.1693 159.933 15.6521C157.311 14.4562 156.057 11.9995 157.608 9.35905C159.792 5.78738 165.289 6.42559 168.189 8.68191C168.46 9.02359 168.243 9.07574 168.078 9.34309H168.077Z" fill="white"/>
<path d="M57.752 7.09766V22.8857L57.4341 23.2036H54.2551L53.9375 22.8857V7.09766H57.752Z" fill="#F0B90B"/>
<path d="M29.7639 15.3452L26.2915 18.5359C25.7914 17.6973 22.8595 15.6433 22.9802 14.8486L26.2771 11.7942C26.5943 11.763 29.8534 15.0343 29.7643 15.3452H29.7639Z" fill="#F0B90B"/>
<path d="M3.85471 12.0528C4.11583 12.2329 6.70021 14.8228 6.68698 15.0278C6.65468 15.5314 3.64418 18.5244 3.3959 18.4828C3.07212 18.4283 0.0620053 15.4726 0.150344 15.078L3.28226 11.8527C3.49513 11.7375 3.69088 11.9395 3.85471 12.0528Z" fill="#F0B90B"/>
<path d="M15.2992 12.0517C15.5805 12.5946 18.1373 14.7019 18.1334 15.0296C18.1275 15.5179 15.0972 18.5234 14.8388 18.4872C14.5932 18.453 11.457 15.4008 11.5407 14.8486C11.5648 14.6887 12.0279 14.6139 12.2058 14.4271C12.6926 13.9162 12.9304 13.8298 13.258 13.522C13.7262 13.0826 14.7139 11.3878 15.2988 12.0517H15.2992Z" fill="#F0B90B"/>
</svg>
