<svg xmlns="http://www.w3.org/2000/svg" width="122" height="36" viewBox="0 0 122 36" fill="none">
  <g clip-path="url(#clip0_3508_61679)">
    <path d="M25.8692 8.96764C25.8692 9.13402 25.8843 9.19452 25.8994 9.0962C25.9145 9.00545 25.9145 8.86933 25.8994 8.7937C25.8767 8.72564 25.8616 8.80127 25.8692 8.96764Z" fill="white"/>
    <path d="M67.1406 17.7409V23.9043H68.2674H69.4018L69.4245 21.8019C69.4472 19.76 69.4547 19.6995 69.6211 19.4046C69.9161 18.913 70.1581 18.7013 70.6421 18.5349C71.2168 18.3459 71.3454 18.3459 71.8521 18.5349C72.2377 18.6786 72.6612 19.0492 72.8654 19.4122C73.0621 19.7676 73.1226 20.4936 73.0999 22.1876L73.0772 23.9043H74.1964H75.3081V21.9456C75.3081 20.8717 75.2703 19.8054 75.2325 19.5861C75.1417 19.0945 74.7258 18.2173 74.4309 17.8619C74.1737 17.5594 73.4704 17.0224 73.1528 16.8787C72.2377 16.4704 71.3076 16.4023 70.4152 16.6821C70.1127 16.7804 69.7951 16.909 69.6967 16.977C69.606 17.0451 69.5001 17.098 69.4699 17.098C69.4321 17.098 69.4094 15.8578 69.4094 14.3377V11.5774H68.275H67.1406V17.7409Z" fill="white"/>
    <path d="M94.3594 17.7409V23.9043H95.4559H96.5525V17.7409V11.5774H95.4559H94.3594V17.7409Z" fill="white"/>
    <path d="M97.7656 17.7409V23.9043H98.9H100.034V17.7409V11.5774H98.9H97.7656V17.7409Z" fill="white"/>
    <path d="M41.5781 13.43V14.6021H43.2041H44.83L44.8451 19.2304L44.8678 23.8662H46.04H47.2122L47.2349 19.2304L47.25 14.6021H48.8759H50.5019V13.43V12.2578H46.04H41.5781V13.43Z" fill="white"/>
    <path d="M76.7573 15.6759L76.78 19.1017L78.9504 19.1395L81.1133 19.1773L81.4083 19.4118C81.7713 19.6991 81.9603 20.0697 81.9603 20.4781C81.9603 20.8865 81.8393 21.1587 81.5217 21.4612C81.2268 21.7561 80.8789 21.862 80.2361 21.862H79.7596L79.7823 22.8603L79.805 23.8661H80.41C81.5671 23.8736 82.3914 23.556 83.0947 22.8376C84.0173 21.8923 84.3576 20.4932 83.9493 19.2832C83.7526 18.6858 83.5711 18.3908 83.1023 17.8917L82.7922 17.559L82.9888 17.196C83.314 16.5834 83.435 15.6759 83.2913 14.9348C83.2384 14.6625 82.9737 14.0726 82.7544 13.7323C82.6031 13.4979 81.9603 12.8702 81.8696 12.8626C81.8393 12.8626 81.7713 12.8173 81.7183 12.7643C81.3024 12.3711 80.5915 12.2576 78.5421 12.2576H76.7422L76.7573 15.6759ZM80.4024 14.3903C80.9167 14.655 81.1284 14.9575 81.1284 15.449C81.1284 15.9179 81.0301 16.1523 80.7125 16.4624C80.5613 16.6061 80.4403 16.7195 80.4251 16.7271C80.4176 16.7346 80.0621 16.7573 79.6311 16.7876L78.8597 16.833V15.5246V14.2163L79.4874 14.2315C79.9336 14.239 80.1907 14.2844 80.4024 14.3903Z" fill="white"/>
    <path d="M101.242 13.4304V14.6025H102.377H103.511V13.4304V12.2582H102.377H101.242V13.4304Z" fill="white"/>
    <path d="M54.2627 16.4554C54.2475 16.4705 54.0509 16.5007 53.824 16.5234C53.1585 16.599 52.2586 17.0906 51.7217 17.6654C51.2452 18.1645 50.8142 18.9283 50.7385 19.4199C50.6705 19.8055 50.6705 20.9324 50.7385 21.2197C50.8066 21.492 51.2301 22.3617 51.3965 22.5659C52.2359 23.5868 53.219 24.0557 54.5122 24.0557C55.329 24.0557 55.9642 23.8666 56.5844 23.428C56.9927 23.1482 57.3784 22.8154 57.3784 22.7549C57.3784 22.7398 57.2574 22.6642 57.1137 22.5885C56.97 22.5054 56.849 22.4146 56.849 22.3768C56.849 22.3465 56.8037 22.3163 56.7507 22.3163C56.6902 22.3163 56.5844 22.2482 56.5087 22.165C56.4331 22.0819 56.3424 22.0138 56.3045 22.0138C56.2667 22.0138 56.1382 21.9382 56.0172 21.8474L55.7979 21.6886L55.4954 21.8852C54.6181 22.4675 53.635 22.2255 53.0602 21.2954C52.977 21.1668 52.9165 21.0458 52.9165 21.0231C52.9165 21.0004 54.0963 20.9853 55.5332 20.9853C57.7868 20.9929 58.1574 20.9777 58.2103 20.8794C58.301 20.6979 58.2784 19.8736 58.1574 19.3669C57.87 18.1115 56.849 17.0377 55.5332 16.6142C55.276 16.531 54.3156 16.41 54.2627 16.4554ZM55.4197 18.6485C55.692 18.8224 55.8735 19.0115 56.0247 19.2837L56.2365 19.6694H54.5349H52.8334L53.0451 19.3064C53.4459 18.6182 53.8089 18.3989 54.5425 18.3989C54.9584 18.3989 55.087 18.4367 55.4197 18.6485Z" fill="white"/>
    <path d="M62.2221 16.6751C61.9499 16.7659 61.6474 16.8869 61.5415 16.9474C61.1709 17.144 60.5886 17.6129 60.4071 17.8549C60.3012 17.9834 60.1802 18.1347 60.1349 18.18C60.029 18.301 59.6584 19.0649 59.5979 19.2917C59.5299 19.5564 59.5299 21.0235 59.5979 21.2958C59.7643 21.9235 60.4147 22.8612 60.9138 23.2015C61.0877 23.315 61.239 23.436 61.239 23.4587C61.239 23.5267 61.8742 23.7914 62.396 23.9427C62.7288 24.041 63.0313 24.0637 63.606 24.0334C64.5362 23.9956 64.627 23.9729 65.2471 23.6704C65.7387 23.436 65.8975 23.2999 65.784 23.2242C65.7235 23.1864 65.5723 22.899 65.2622 22.2562C65.1942 22.1277 65.111 22.0142 65.0807 22.0142C65.0505 22.0142 65.0202 21.9689 65.0202 21.9084C65.0202 21.8554 64.9673 21.7647 64.9068 21.7117C64.816 21.6361 64.7858 21.6437 64.748 21.7344C64.7253 21.8025 64.5514 21.931 64.3623 22.0218C63.5985 22.3924 62.517 22.1352 61.9423 21.4395C61.6322 21.0538 61.5339 20.7437 61.549 20.1992C61.5869 19.3598 62.1994 18.6867 63.1372 18.4599C63.5985 18.3464 64.211 18.4674 64.574 18.7245C64.7102 18.8304 64.8463 18.9136 64.8765 18.9136C64.9295 18.9136 65.1942 18.4674 65.6328 17.6582L65.8445 17.265L65.5647 17.0759C64.7555 16.5163 63.2355 16.3348 62.2221 16.6751Z" fill="white"/>
    <path d="M107.673 16.5839C107.529 16.6217 107.378 16.6595 107.332 16.6671C106.833 16.8032 105.631 17.567 105.479 17.8469C105.442 17.93 105.358 18.0435 105.313 18.0964C105.177 18.2477 105.048 18.4519 104.867 18.83C104.519 19.556 104.489 20.9777 104.806 21.5752C104.859 21.6735 104.897 21.7642 104.897 21.7869C104.867 21.9987 105.691 22.9969 106.198 23.375C106.795 23.8212 107.612 24.0557 108.542 24.0557C109.495 24.0557 110.319 23.8212 110.872 23.3902C111.454 22.9289 112.21 22.0138 112.21 21.7642C112.21 21.7037 112.233 21.6357 112.263 21.6054C112.452 21.4239 112.558 19.9341 112.429 19.4425C112.324 19.072 112.029 18.3838 111.976 18.3838C111.938 18.3838 111.908 18.346 111.908 18.3082C111.908 18.2174 111.885 18.1947 111.507 17.7788C111.25 17.4914 110.63 17.0377 110.319 16.894C110.168 16.8259 109.828 16.6974 109.828 16.7125C109.828 16.7125 109.677 16.6671 109.48 16.6142C109.102 16.5007 108.081 16.478 107.673 16.5839ZM109.283 18.5199C109.541 18.6258 110.047 19.14 110.221 19.4652C110.388 19.7829 110.388 20.7357 110.221 21.1139C109.692 22.3239 108.126 22.5734 107.234 21.6054C106.886 21.2273 106.735 20.8038 106.735 20.229C106.742 19.5635 107.242 18.8149 107.862 18.5275C108.194 18.3762 108.913 18.3762 109.283 18.5199Z" fill="white"/>
    <path d="M116.855 16.667C116.613 16.7502 116.25 16.9317 116.061 17.0678C115.864 17.2115 115.69 17.3249 115.675 17.3249C115.652 17.3249 115.577 17.1888 115.501 17.0224L115.365 16.7199H114.503H113.648V20.3121V23.9043H114.707H115.766L115.781 22.0666C115.781 21.0608 115.789 20.1835 115.781 20.123C115.766 19.8205 116.038 19.2534 116.371 18.913C116.794 18.4744 117.241 18.3459 117.838 18.4744C118.451 18.603 119.071 19.3441 119.131 20.0096C119.146 20.1306 119.154 21.0608 119.161 22.0666L119.169 23.9043H120.198H121.219L121.188 21.6885C121.173 20.4785 121.135 19.3819 121.105 19.2609C120.984 18.7618 120.568 18.0509 120.16 17.6425C119.585 17.0602 119.494 16.9997 118.904 16.7577C118.224 16.4855 117.475 16.4552 116.855 16.667Z" fill="white"/>
    <path d="M85.5337 16.8335C85.511 16.9015 85.511 17.8771 85.5262 19.0115C85.564 21.0609 85.564 21.0685 85.7757 21.5979C85.8967 21.8852 86.0177 22.1348 86.0555 22.1499C86.0858 22.165 86.116 22.218 86.116 22.2709C86.116 22.5054 87.084 23.3675 87.7722 23.7456C88.3167 24.0481 89.5267 24.1464 90.2376 23.9498C90.9258 23.7607 91.2434 23.5641 91.9921 22.891C92.3022 22.6112 92.8542 21.6584 92.9752 21.1819C93.0055 21.076 93.0357 20.0324 93.0509 18.8527L93.0811 16.72H91.9845H90.8804V18.6485C90.8804 20.3803 90.8653 20.6072 90.7292 20.9475C90.5477 21.4164 90.3208 21.681 89.9578 21.8701C89.2772 22.218 88.3772 21.9306 87.9689 21.2273C87.7269 20.8038 87.7193 20.7357 87.7117 18.588L87.7042 16.72H86.6454C85.7606 16.72 85.5715 16.7427 85.5337 16.8335Z" fill="white"/>
    <path d="M101.283 16.8109C101.261 16.8639 101.253 18.4747 101.261 20.388L101.283 23.8667L102.403 23.8894L103.514 23.9121V20.3124V16.7202H102.418C101.609 16.7202 101.306 16.7429 101.283 16.8109Z" fill="white"/>
    <path d="M16.6954 0.392979C15.7577 0.45348 13.9502 0.725727 13.7914 0.824039C13.746 0.846729 13.6477 0.861855 13.5797 0.85429C13.504 0.839169 13.4435 0.85429 13.4435 0.892105C13.4435 0.922356 13.3679 0.960167 13.2696 0.960167C13.0352 0.975292 11.7873 1.3761 11.1748 1.63323C8.89847 2.58611 7.07591 3.7961 5.38947 5.4901C3.77866 7.10092 2.69722 8.67392 1.73678 10.799C-0.214344 15.1247 -0.214344 20.5092 1.73678 24.835C2.69722 26.96 3.77866 28.533 5.38947 30.1439C7.07591 31.8379 8.89847 33.0479 11.1748 34.0007C13.383 34.9234 16.1887 35.3847 18.7373 35.2334C20.333 35.1427 21.4371 34.946 22.9345 34.4847C24.4243 34.0234 26.262 33.1462 27.5476 32.2765C30.497 30.28 32.8262 27.3306 34.0816 24.0031C34.9059 21.8251 35.2387 19.8589 35.1782 17.5145C35.163 16.8036 35.1479 16.1381 35.1479 16.0247C35.1479 15.9112 35.1177 15.8054 35.0798 15.7751C35.0345 15.7524 35.0193 15.6844 35.0496 15.6239C35.095 15.4953 34.9815 14.8374 34.7244 13.7105C33.8018 9.7251 31.3288 6.07242 27.8879 3.59192C26.3754 2.51048 24.0462 1.42148 22.1404 0.922356C21.3615 0.710606 19.9851 0.46104 19.6826 0.468605C19.5011 0.476166 18.1928 0.392979 17.8676 0.355167C17.7466 0.340042 17.2172 0.362728 16.6954 0.392979ZM25.8007 6.97992C26.0048 8.68148 25.9973 9.08229 25.8007 10.988L25.7553 11.4267H23.1538H20.5523V20.116V28.8053L20.159 28.8582C19.9397 28.8809 19.5692 28.9414 19.3347 28.9868C18.586 29.1229 15.3417 28.9717 15.0392 28.7902C14.9787 28.7524 14.956 26.2945 14.956 20.0782V11.4267H12.347C10.2295 11.4267 9.73791 11.404 9.73791 11.3284C9.73791 11.2679 9.68497 10.8897 9.62447 10.4738C9.50347 9.64948 9.46566 8.58317 9.53372 8.17479C9.56397 8.03111 9.60178 7.75885 9.62447 7.56979C9.67741 7.1236 9.75303 6.71523 9.79084 6.6396C9.80597 6.60936 13.4057 6.58667 17.7844 6.58667H25.7477L25.8007 6.97992Z" fill="#15406B"/>
  </g>
  <defs>
    <clipPath id="clip0_3508_61679">
      <rect width="121" height="35.0144" fill="white" transform="translate(0.210938 0.308594)"/>
    </clipPath>
  </defs>
</svg>