<svg width="33" height="33" viewBox="0 0 33 33" fill="none" xmlns="http://www.w3.org/2000/svg">
<circle cx="16.2455" cy="16.2768" r="15.2768" stroke="#ECB300" stroke-width="1.03571"/>
<path d="M18.5361 8.70363C19.2233 8.91086 19.6949 9.21746 19.9709 9.40198C20.3131 9.62909 20.5747 9.85336 20.7501 10.0208C21.2993 10.6596 21.4804 11.3381 21.5811 11.7128C21.7881 12.4821 21.7651 13.1464 21.7162 13.558C21.4574 13.3111 21.0118 12.9534 20.3706 12.6979C19.8616 12.4963 19.4045 12.4282 19.0824 12.4055C19.091 12.2692 19.1054 11.8377 18.8179 11.4232C18.4355 10.8725 17.8288 10.7788 17.7253 10.7646H13.2685V13.0357H18.9674C19.2549 13.0556 19.6834 13.1152 20.1607 13.3054C20.9773 13.629 21.4632 14.14 21.7536 14.4551C22.3344 15.0825 23.637 16.4849 23.5708 18.6197C23.5622 18.9376 23.4443 21.3393 21.3856 22.7161C20.1204 23.5649 18.7978 23.5678 18.3003 23.5422H11.2558V16.729H18.0128C18.2256 16.465 18.4383 16.201 18.6511 15.937C18.8869 15.9966 19.3239 16.1414 19.7524 16.4991C20.1837 16.8596 20.4022 17.2656 20.5 17.4841C20.3907 17.6885 20.2354 17.9213 20.0083 18.1484C19.2808 18.8723 18.3463 18.9774 18.0099 19.0001H13.2656V21.2711H18.8725C19.1859 21.2257 20.0428 21.0582 20.661 20.3428C21.5868 19.2754 21.3856 17.6602 20.7214 16.6637C20.6667 16.5814 19.9076 15.4799 18.6684 15.3096C18.3463 15.2642 18.0962 15.3096 18.0099 15.3096C16.2128 15.3096 11.3593 15.3096 11.25 15.3096V8.49639C11.25 8.49639 11.8941 8.49355 13.1563 8.49639C14.3352 8.4822 15.5314 8.48504 16.7419 8.50207C16.9834 8.50491 17.2249 8.51059 17.4636 8.51343C17.9122 8.54465 18.2744 8.62982 18.5275 8.70647L18.5361 8.70363Z" fill="#ECB300"/>
</svg>
