<svg width="116" height="21" viewBox="0 0 116 21" fill="none" xmlns="http://www.w3.org/2000/svg">
<g clip-path="url(#clip0_3542_23461)">
<path d="M9.53834 2.55625C9.70914 2.14561 10.2909 2.14561 10.4617 2.55625L12.5278 7.52373C12.5998 7.69685 12.7626 7.81513 12.9495 7.83012L18.3123 8.26005C18.7556 8.29559 18.9354 8.84885 18.5976 9.13818L14.5117 12.6382C14.3693 12.7602 14.3071 12.9516 14.3506 13.1339L15.5989 18.3671C15.7021 18.7997 15.2315 19.1417 14.8519 18.9098L10.2606 16.1055C10.1006 16.0077 9.89938 16.0077 9.73937 16.1055L5.14806 18.9098C4.76851 19.1417 4.29788 18.7997 4.40108 18.3671L5.64939 13.1339C5.69289 12.9516 5.6307 12.7602 5.48831 12.6382L1.40241 9.13818C1.06464 8.84885 1.24441 8.29559 1.68773 8.26005L7.05054 7.83012C7.23744 7.81513 7.40024 7.69685 7.47225 7.52373L9.53834 2.55625Z" fill="#F5F5F5"/>
<g clip-path="url(#clip1_3542_23461)">
<path d="M9.53834 2.55625C9.70914 2.14561 10.2909 2.14561 10.4617 2.55625L12.5278 7.52373C12.5998 7.69685 12.7626 7.81513 12.9495 7.83012L18.3123 8.26005C18.7556 8.29559 18.9354 8.84885 18.5976 9.13818L14.5117 12.6382C14.3693 12.7602 14.3071 12.9516 14.3506 13.1339L15.5989 18.3671C15.7021 18.7997 15.2315 19.1417 14.8519 18.9098L10.2606 16.1055C10.1006 16.0077 9.89938 16.0077 9.73937 16.1055L5.14806 18.9098C4.76851 19.1417 4.29788 18.7997 4.40108 18.3671L5.64939 13.1339C5.69289 12.9516 5.6307 12.7602 5.48831 12.6382L1.40241 9.13818C1.06464 8.84885 1.24441 8.29559 1.68773 8.26005L7.05054 7.83012C7.23744 7.81513 7.40024 7.69685 7.47225 7.52373L9.53834 2.55625Z" fill="#FDB022"/>
</g>
</g>
<g clip-path="url(#clip2_3542_23461)">
<path d="M33.5383 2.55625C33.7091 2.14561 34.2909 2.14561 34.4617 2.55625L36.5278 7.52373C36.5998 7.69685 36.7626 7.81513 36.9495 7.83012L42.3123 8.26005C42.7556 8.29559 42.9354 8.84885 42.5976 9.13818L38.5117 12.6382C38.3693 12.7602 38.3071 12.9516 38.3506 13.1339L39.5989 18.3671C39.7021 18.7997 39.2315 19.1417 38.8519 18.9098L34.2606 16.1055C34.1006 16.0077 33.8994 16.0077 33.7394 16.1055L29.1481 18.9098C28.7685 19.1417 28.2979 18.7997 28.4011 18.3671L29.6494 13.1339C29.6929 12.9516 29.6307 12.7602 29.4883 12.6382L25.4024 9.13818C25.0646 8.84885 25.2444 8.29559 25.6877 8.26005L31.0505 7.83012C31.2374 7.81513 31.4002 7.69685 31.4722 7.52373L33.5383 2.55625Z" fill="#F5F5F5"/>
<g clip-path="url(#clip3_3542_23461)">
<path d="M33.5383 2.55625C33.7091 2.14561 34.2909 2.14561 34.4617 2.55625L36.5278 7.52373C36.5998 7.69685 36.7626 7.81513 36.9495 7.83012L42.3123 8.26005C42.7556 8.29559 42.9354 8.84885 42.5976 9.13818L38.5117 12.6382C38.3693 12.7602 38.3071 12.9516 38.3506 13.1339L39.5989 18.3671C39.7021 18.7997 39.2315 19.1417 38.8519 18.9098L34.2606 16.1055C34.1006 16.0077 33.8994 16.0077 33.7394 16.1055L29.1481 18.9098C28.7685 19.1417 28.2979 18.7997 28.4011 18.3671L29.6494 13.1339C29.6929 12.9516 29.6307 12.7602 29.4883 12.6382L25.4024 9.13818C25.0646 8.84885 25.2444 8.29559 25.6877 8.26005L31.0505 7.83012C31.2374 7.81513 31.4002 7.69685 31.4722 7.52373L33.5383 2.55625Z" fill="#FDB022"/>
</g>
</g>
<g clip-path="url(#clip4_3542_23461)">
<path d="M57.5383 2.55625C57.7091 2.14561 58.2909 2.14561 58.4617 2.55625L60.5278 7.52373C60.5998 7.69685 60.7626 7.81513 60.9495 7.83012L66.3123 8.26005C66.7556 8.29559 66.9354 8.84885 66.5976 9.13818L62.5117 12.6382C62.3693 12.7602 62.3071 12.9516 62.3506 13.1339L63.5989 18.3671C63.7021 18.7997 63.2315 19.1417 62.8519 18.9098L58.2606 16.1055C58.1006 16.0077 57.8994 16.0077 57.7394 16.1055L53.1481 18.9098C52.7685 19.1417 52.2979 18.7997 52.4011 18.3671L53.6494 13.1339C53.6929 12.9516 53.6307 12.7602 53.4883 12.6382L49.4024 9.13818C49.0646 8.84885 49.2444 8.29559 49.6877 8.26005L55.0505 7.83012C55.2374 7.81513 55.4002 7.69685 55.4722 7.52373L57.5383 2.55625Z" fill="#F5F5F5"/>
<g clip-path="url(#clip5_3542_23461)">
<path d="M57.5383 2.55625C57.7091 2.14561 58.2909 2.14561 58.4617 2.55625L60.5278 7.52373C60.5998 7.69685 60.7626 7.81513 60.9495 7.83012L66.3123 8.26005C66.7556 8.29559 66.9354 8.84885 66.5976 9.13818L62.5117 12.6382C62.3693 12.7602 62.3071 12.9516 62.3506 13.1339L63.5989 18.3671C63.7021 18.7997 63.2315 19.1417 62.8519 18.9098L58.2606 16.1055C58.1006 16.0077 57.8994 16.0077 57.7394 16.1055L53.1481 18.9098C52.7685 19.1417 52.2979 18.7997 52.4011 18.3671L53.6494 13.1339C53.6929 12.9516 53.6307 12.7602 53.4883 12.6382L49.4024 9.13818C49.0646 8.84885 49.2444 8.29559 49.6877 8.26005L55.0505 7.83012C55.2374 7.81513 55.4002 7.69685 55.4722 7.52373L57.5383 2.55625Z" fill="#FDB022"/>
</g>
</g>
<g clip-path="url(#clip6_3542_23461)">
<path d="M81.5383 2.55625C81.7091 2.14561 82.2909 2.14561 82.4617 2.55625L84.5278 7.52373C84.5998 7.69685 84.7626 7.81513 84.9495 7.83012L90.3123 8.26005C90.7556 8.29559 90.9354 8.84885 90.5976 9.13818L86.5117 12.6382C86.3693 12.7602 86.3071 12.9516 86.3506 13.1339L87.5989 18.3671C87.7021 18.7997 87.2315 19.1417 86.8519 18.9098L82.2606 16.1055C82.1006 16.0077 81.8994 16.0077 81.7394 16.1055L77.1481 18.9098C76.7685 19.1417 76.2979 18.7997 76.4011 18.3671L77.6494 13.1339C77.6929 12.9516 77.6307 12.7602 77.4883 12.6382L73.4024 9.13818C73.0646 8.84885 73.2444 8.29559 73.6877 8.26005L79.0505 7.83012C79.2374 7.81513 79.4002 7.69685 79.4722 7.52373L81.5383 2.55625Z" fill="#F5F5F5"/>
<g clip-path="url(#clip7_3542_23461)">
<path d="M81.5383 2.55625C81.7091 2.14561 82.2909 2.14561 82.4617 2.55625L84.5278 7.52373C84.5998 7.69685 84.7626 7.81513 84.9495 7.83012L90.3123 8.26005C90.7556 8.29559 90.9354 8.84885 90.5976 9.13818L86.5117 12.6382C86.3693 12.7602 86.3071 12.9516 86.3506 13.1339L87.5989 18.3671C87.7021 18.7997 87.2315 19.1417 86.8519 18.9098L82.2606 16.1055C82.1006 16.0077 81.8994 16.0077 81.7394 16.1055L77.1481 18.9098C76.7685 19.1417 76.2979 18.7997 76.4011 18.3671L77.6494 13.1339C77.6929 12.9516 77.6307 12.7602 77.4883 12.6382L73.4024 9.13818C73.0646 8.84885 73.2444 8.29559 73.6877 8.26005L79.0505 7.83012C79.2374 7.81513 79.4002 7.69685 79.4722 7.52373L81.5383 2.55625Z" fill="#FDB022"/>
</g>
</g>
<g clip-path="url(#clip8_3542_23461)">
<path d="M105.538 2.55625C105.709 2.14561 106.291 2.14561 106.462 2.55625L108.528 7.52373C108.6 7.69685 108.763 7.81513 108.949 7.83012L114.312 8.26005C114.756 8.29559 114.935 8.84885 114.598 9.13818L110.512 12.6382C110.369 12.7602 110.307 12.9516 110.351 13.1339L111.599 18.3671C111.702 18.7997 111.231 19.1417 110.852 18.9098L106.261 16.1055C106.101 16.0077 105.899 16.0077 105.739 16.1055L101.148 18.9098C100.769 19.1417 100.298 18.7997 100.401 18.3671L101.649 13.1339C101.693 12.9516 101.631 12.7602 101.488 12.6382L97.4024 9.13818C97.0646 8.84885 97.2444 8.29559 97.6877 8.26005L103.051 7.83012C103.237 7.81513 103.4 7.69685 103.472 7.52373L105.538 2.55625Z" fill="#F5F5F5"/>
<g clip-path="url(#clip9_3542_23461)">
<path d="M105.538 2.55625C105.709 2.14561 106.291 2.14561 106.462 2.55625L108.528 7.52373C108.6 7.69685 108.763 7.81513 108.949 7.83012L114.312 8.26005C114.756 8.29559 114.935 8.84885 114.598 9.13818L110.512 12.6382C110.369 12.7602 110.307 12.9516 110.351 13.1339L111.599 18.3671C111.702 18.7997 111.231 19.1417 110.852 18.9098L106.261 16.1055C106.101 16.0077 105.899 16.0077 105.739 16.1055L101.148 18.9098C100.769 19.1417 100.298 18.7997 100.401 18.3671L101.649 13.1339C101.693 12.9516 101.631 12.7602 101.488 12.6382L97.4024 9.13818C97.0646 8.84885 97.2444 8.29559 97.6877 8.26005L103.051 7.83012C103.237 7.81513 103.4 7.69685 103.472 7.52373L105.538 2.55625Z" fill="#FDB022"/>
</g>
</g>
<defs>
<clipPath id="clip0_3542_23461">
<rect width="20" height="20" fill="white" transform="translate(0 0.946289)"/>
</clipPath>
<clipPath id="clip1_3542_23461">
<rect width="20" height="20" fill="white" transform="translate(0 0.946289)"/>
</clipPath>
<clipPath id="clip2_3542_23461">
<rect width="20" height="20" fill="white" transform="translate(24 0.946289)"/>
</clipPath>
<clipPath id="clip3_3542_23461">
<rect width="20" height="20" fill="white" transform="translate(24 0.946289)"/>
</clipPath>
<clipPath id="clip4_3542_23461">
<rect width="20" height="20" fill="white" transform="translate(48 0.946289)"/>
</clipPath>
<clipPath id="clip5_3542_23461">
<rect width="20" height="20" fill="white" transform="translate(48 0.946289)"/>
</clipPath>
<clipPath id="clip6_3542_23461">
<rect width="20" height="20" fill="white" transform="translate(72 0.946289)"/>
</clipPath>
<clipPath id="clip7_3542_23461">
<rect width="20" height="20" fill="white" transform="translate(72 0.946289)"/>
</clipPath>
<clipPath id="clip8_3542_23461">
<rect width="20" height="20" fill="white" transform="translate(96 0.946289)"/>
</clipPath>
<clipPath id="clip9_3542_23461">
<rect width="20" height="20" fill="white" transform="translate(96 0.946289)"/>
</clipPath>
</defs>
</svg>
